<svg xmlns="http://www.w3.org/2000/svg" xmlns:xlink="http://www.w3.org/1999/xlink" width="500" zoomAndPan="magnify" viewBox="0 0 375 374.999991" height="500" preserveAspectRatio="xMidYMid meet" version="1.0">
  <path fill="#14b8a6" d="M 325 175 L 50 175 L 50 337.5 C 50 347.449219 53.949219 356.988281 60.988281 364.011719 C 68.011719 371.050781 77.550781 375 87.5 375 C 135.398438 375 239.601562 375 287.5 375 C 297.449219 375 306.988281 371.050781 314.011719 364.011719 C 321.050781 356.988281 325 347.449219 325 337.5 Z M 250 337.5 L 262.5 337.5 C 269.398438 337.5 275 331.898438 275 325 C 275 318.101562 269.398438 312.5 262.5 312.5 L 250 312.5 C 243.101562 312.5 237.5 318.101562 237.5 325 C 237.5 331.898438 243.101562 337.5 250 337.5 Z M 112.5 337.5 L 212.5 337.5 C 219.398438 337.5 225 331.898438 225 325 C 225 318.101562 219.398438 312.5 212.5 312.5 L 112.5 312.5 C 105.601562 312.5 100 318.101562 100 325 C 100 331.898438 105.601562 337.5 112.5 337.5 Z M 125 262.5 L 112.5 262.5 C 105.601562 262.5 100 268.101562 100 275 C 100 281.898438 105.601562 287.5 112.5 287.5 L 125 287.5 C 131.898438 287.5 137.5 281.898438 137.5 275 C 137.5 268.101562 131.898438 262.5 125 262.5 Z M 262.5 262.5 L 162.5 262.5 C 155.601562 262.5 150 268.101562 150 275 C 150 281.898438 155.601562 287.5 162.5 287.5 L 262.5 287.5 C 269.398438 287.5 275 281.898438 275 275 C 275 268.101562 269.398438 262.5 262.5 262.5 Z M 250 237.5 L 262.5 237.5 C 269.398438 237.5 275 231.898438 275 225 C 275 218.101562 269.398438 212.5 262.5 212.5 L 250 212.5 C 243.101562 212.5 237.5 218.101562 237.5 225 C 237.5 231.898438 243.101562 237.5 250 237.5 Z M 112.5 237.5 L 212.5 237.5 C 219.398438 237.5 225 231.898438 225 225 C 225 218.101562 219.398438 212.5 212.5 212.5 L 112.5 212.5 C 105.601562 212.5 100 218.101562 100 225 C 100 231.898438 105.601562 237.5 112.5 237.5 Z M 50 162.5 L 325 162.5 L 325 37.5 C 325 27.550781 321.050781 18.011719 314.011719 10.988281 C 306.988281 3.949219 297.449219 0 287.5 0 C 239.601562 0 135.398438 0 87.5 0 C 77.550781 0 68.011719 3.949219 60.988281 10.988281 C 53.949219 18.011719 50 27.550781 50 37.5 Z M 132.726562 112.5 L 167.273438 112.5 L 170.074219 118.085938 C 173.148438 124.261719 180.675781 126.761719 186.835938 123.675781 C 193.011719 120.601562 195.511719 113.074219 192.425781 106.914062 L 161.175781 44.414062 C 159.0625 40.175781 154.738281 37.5 150 37.5 C 145.261719 37.5 140.9375 40.175781 138.824219 44.414062 L 107.574219 106.914062 C 104.488281 113.074219 106.988281 120.601562 113.164062 123.675781 C 119.324219 126.761719 126.851562 124.261719 129.925781 118.085938 Z M 242.875 64.738281 C 239.273438 63.289062 235.351562 62.5 231.25 62.5 C 214 62.5 200 76.5 200 93.75 C 200 111 214 125 231.25 125 C 235.351562 125 239.273438 124.210938 242.875 122.761719 C 244.886719 124.175781 247.351562 125 250 125 C 256.898438 125 262.5 119.398438 262.5 112.5 L 262.5 75 C 262.5 68.101562 256.898438 62.5 250 62.5 C 247.351562 62.5 244.886719 63.324219 242.875 64.738281 Z M 231.25 87.5 C 234.699219 87.5 237.5 90.300781 237.5 93.75 C 237.5 97.199219 234.699219 100 231.25 100 C 227.800781 100 225 97.199219 225 93.75 C 225 90.300781 227.800781 87.5 231.25 87.5 Z M 145.226562 87.5 L 154.773438 87.5 L 150 77.949219 Z M 145.226562 87.5" fill-opacity="1" fill-rule="evenodd"/>
</svg>